<svg width="512" height="512" viewBox="0 0 512 512" fill="none" xmlns="http://www.w3.org/2000/svg">
  <rect width="512" height="512" rx="128" fill="#0ea5e9"/>
  <path d="M256 96c-88.4 0-160 71.6-160 160s71.6 160 160 160 160-71.6 160-160S344.4 96 256 96zm0 288c-70.7 0-128-57.3-128-128s57.3-128 128-128 128 57.3 128 128-57.3 128-128 128z" fill="white"/>
  <circle cx="256" cy="200" r="24" fill="white"/>
  <path d="M256 240c-13.3 0-24 10.7-24 24v64c0 13.3 10.7 24 24 24s24-10.7 24-24v-64c0-13.3-10.7-24-24-24z" fill="white"/>
  <path d="M200 320h112c8.8 0 16 7.2 16 16s-7.2 16-16 16H200c-8.8 0-16-7.2-16-16s7.2-16 16-16z" fill="white"/>
</svg>